<mxfile host="app.diagrams.net" modified="2021-11-10T10:32:47.574Z" agent="5.0 (Windows NT 10.0; Win64; x64) AppleWebKit/537.36 (KHTML, like Gecko) Chrome/95.0.4638.69 Safari/537.36" etag="VqAhCW_brEbAxrZIeoje" version="15.7.1" type="github">
  <diagram id="R2lEEEUBdFMjLlhIrx00" name="Page-1">
    <mxGraphModel dx="1278" dy="575" grid="1" gridSize="10" guides="1" tooltips="1" connect="1" arrows="1" fold="1" page="1" pageScale="1" pageWidth="850" pageHeight="1100" math="0" shadow="0" extFonts="Permanent Marker^https://fonts.googleapis.com/css?family=Permanent+Marker">
      <root>
        <mxCell id="0" />
        <mxCell id="1" parent="0" />
        <mxCell id="ADMuirEgVVqvRALKzmbx-63" value="salbar" style="whiteSpace=wrap;html=1;align=center;" vertex="1" parent="1">
          <mxGeometry x="70" y="210" width="100" height="40" as="geometry" />
        </mxCell>
        <mxCell id="ADMuirEgVVqvRALKzmbx-65" value="hariutsagch" style="whiteSpace=wrap;html=1;align=center;" vertex="1" parent="1">
          <mxGeometry x="350" y="210" width="100" height="40" as="geometry" />
        </mxCell>
        <mxCell id="ADMuirEgVVqvRALKzmbx-74" value="has -&gt;" style="text;strokeColor=none;fillColor=none;spacingLeft=4;spacingRight=4;overflow=hidden;rotatable=0;points=[[0,0.5],[1,0.5]];portConstraint=eastwest;fontSize=12;" vertex="1" parent="1">
          <mxGeometry x="220" y="210" width="90" height="30" as="geometry" />
        </mxCell>
        <mxCell id="ADMuirEgVVqvRALKzmbx-104" value="" style="endArrow=none;html=1;rounded=0;entryX=0;entryY=0.5;entryDx=0;entryDy=0;exitX=1;exitY=0.5;exitDx=0;exitDy=0;" edge="1" parent="1" source="ADMuirEgVVqvRALKzmbx-63" target="ADMuirEgVVqvRALKzmbx-65">
          <mxGeometry relative="1" as="geometry">
            <mxPoint x="180" y="230" as="sourcePoint" />
            <mxPoint x="340" y="230" as="targetPoint" />
          </mxGeometry>
        </mxCell>
        <mxCell id="ADMuirEgVVqvRALKzmbx-105" value="0..1" style="resizable=0;html=1;align=left;verticalAlign=bottom;" connectable="0" vertex="1" parent="ADMuirEgVVqvRALKzmbx-104">
          <mxGeometry x="-1" relative="1" as="geometry" />
        </mxCell>
        <mxCell id="ADMuirEgVVqvRALKzmbx-106" value="1..1" style="resizable=0;html=1;align=right;verticalAlign=bottom;" connectable="0" vertex="1" parent="ADMuirEgVVqvRALKzmbx-104">
          <mxGeometry x="1" relative="1" as="geometry" />
        </mxCell>
        <mxCell id="ADMuirEgVVqvRALKzmbx-112" value="irged" style="whiteSpace=wrap;html=1;align=center;" vertex="1" parent="1">
          <mxGeometry x="290" y="450" width="100" height="40" as="geometry" />
        </mxCell>
        <mxCell id="ADMuirEgVVqvRALKzmbx-113" value="registers" style="shape=rhombus;perimeter=rhombusPerimeter;whiteSpace=wrap;html=1;align=center;" vertex="1" parent="1">
          <mxGeometry x="205" y="330" width="120" height="60" as="geometry" />
        </mxCell>
        <mxCell id="ADMuirEgVVqvRALKzmbx-114" value="" style="endArrow=none;html=1;rounded=0;entryX=0.5;entryY=1;entryDx=0;entryDy=0;" edge="1" parent="1" target="ADMuirEgVVqvRALKzmbx-65">
          <mxGeometry relative="1" as="geometry">
            <mxPoint x="320" y="359.5" as="sourcePoint" />
            <mxPoint x="480" y="359.5" as="targetPoint" />
            <Array as="points">
              <mxPoint x="400" y="360" />
            </Array>
          </mxGeometry>
        </mxCell>
        <mxCell id="ADMuirEgVVqvRALKzmbx-116" value="1..1" style="resizable=0;html=1;align=right;verticalAlign=bottom;" connectable="0" vertex="1" parent="ADMuirEgVVqvRALKzmbx-114">
          <mxGeometry x="1" relative="1" as="geometry">
            <mxPoint y="20" as="offset" />
          </mxGeometry>
        </mxCell>
        <mxCell id="ADMuirEgVVqvRALKzmbx-117" value="" style="endArrow=none;html=1;rounded=0;" edge="1" parent="1">
          <mxGeometry relative="1" as="geometry">
            <mxPoint x="120" y="250" as="sourcePoint" />
            <mxPoint x="210" y="359.5" as="targetPoint" />
            <Array as="points">
              <mxPoint x="120" y="360" />
            </Array>
          </mxGeometry>
        </mxCell>
        <mxCell id="ADMuirEgVVqvRALKzmbx-118" value="1..1" style="resizable=0;html=1;align=left;verticalAlign=bottom;" connectable="0" vertex="1" parent="ADMuirEgVVqvRALKzmbx-117">
          <mxGeometry x="-1" relative="1" as="geometry">
            <mxPoint y="18" as="offset" />
          </mxGeometry>
        </mxCell>
        <mxCell id="ADMuirEgVVqvRALKzmbx-121" value="" style="endArrow=none;html=1;rounded=0;exitX=0.5;exitY=1;exitDx=0;exitDy=0;entryX=0;entryY=0.5;entryDx=0;entryDy=0;" edge="1" parent="1" source="ADMuirEgVVqvRALKzmbx-113" target="ADMuirEgVVqvRALKzmbx-112">
          <mxGeometry relative="1" as="geometry">
            <mxPoint x="200" y="340" as="sourcePoint" />
            <mxPoint x="265" y="440" as="targetPoint" />
            <Array as="points">
              <mxPoint x="265" y="470" />
            </Array>
          </mxGeometry>
        </mxCell>
        <mxCell id="ADMuirEgVVqvRALKzmbx-122" value="0..*" style="resizable=0;html=1;align=left;verticalAlign=bottom;" connectable="0" vertex="1" parent="ADMuirEgVVqvRALKzmbx-121">
          <mxGeometry x="-1" relative="1" as="geometry">
            <mxPoint y="20" as="offset" />
          </mxGeometry>
        </mxCell>
        <mxCell id="ADMuirEgVVqvRALKzmbx-125" value="" style="endArrow=none;html=1;rounded=0;dashed=1;dashPattern=1 2;exitX=0.499;exitY=1.05;exitDx=0;exitDy=0;entryX=0.5;entryY=0;entryDx=0;entryDy=0;exitPerimeter=0;" edge="1" parent="1" source="ADMuirEgVVqvRALKzmbx-151" target="ADMuirEgVVqvRALKzmbx-113">
          <mxGeometry relative="1" as="geometry">
            <mxPoint x="265" y="300" as="sourcePoint" />
            <mxPoint x="360" y="340" as="targetPoint" />
          </mxGeometry>
        </mxCell>
        <mxCell id="ADMuirEgVVqvRALKzmbx-127" value="" style="endArrow=none;html=1;rounded=0;exitX=0.5;exitY=1;exitDx=0;exitDy=0;entryX=1;entryY=0.5;entryDx=0;entryDy=0;" edge="1" parent="1" source="ADMuirEgVVqvRALKzmbx-112" target="ADMuirEgVVqvRALKzmbx-130">
          <mxGeometry relative="1" as="geometry">
            <mxPoint x="260" y="480" as="sourcePoint" />
            <mxPoint x="265" y="520" as="targetPoint" />
            <Array as="points">
              <mxPoint x="340" y="560" />
            </Array>
          </mxGeometry>
        </mxCell>
        <mxCell id="ADMuirEgVVqvRALKzmbx-128" value="1..1" style="resizable=0;html=1;align=left;verticalAlign=bottom;" connectable="0" vertex="1" parent="ADMuirEgVVqvRALKzmbx-127">
          <mxGeometry x="-1" relative="1" as="geometry">
            <mxPoint x="5" y="20" as="offset" />
          </mxGeometry>
        </mxCell>
        <mxCell id="ADMuirEgVVqvRALKzmbx-129" value="0..*" style="resizable=0;html=1;align=right;verticalAlign=bottom;" connectable="0" vertex="1" parent="ADMuirEgVVqvRALKzmbx-127">
          <mxGeometry x="1" relative="1" as="geometry">
            <mxPoint x="-5" as="offset" />
          </mxGeometry>
        </mxCell>
        <mxCell id="ADMuirEgVVqvRALKzmbx-130" value="huuhed" style="whiteSpace=wrap;html=1;align=center;" vertex="1" parent="1">
          <mxGeometry x="140" y="540" width="100" height="40" as="geometry" />
        </mxCell>
        <mxCell id="ADMuirEgVVqvRALKzmbx-131" value="&amp;lt;- has" style="text;html=1;align=center;verticalAlign=middle;resizable=0;points=[];autosize=1;strokeColor=none;fillColor=none;" vertex="1" parent="1">
          <mxGeometry x="280" y="540" width="50" height="20" as="geometry" />
        </mxCell>
        <mxCell id="ADMuirEgVVqvRALKzmbx-135" value="" style="endArrow=none;html=1;rounded=0;exitX=1;exitY=0.5;exitDx=0;exitDy=0;entryX=1;entryY=0.5;entryDx=0;entryDy=0;" edge="1" parent="1" source="ADMuirEgVVqvRALKzmbx-65" target="ADMuirEgVVqvRALKzmbx-112">
          <mxGeometry relative="1" as="geometry">
            <mxPoint x="480" y="260" as="sourcePoint" />
            <mxPoint x="640" y="260" as="targetPoint" />
            <Array as="points">
              <mxPoint x="560" y="230" />
              <mxPoint x="560" y="470" />
            </Array>
          </mxGeometry>
        </mxCell>
        <mxCell id="ADMuirEgVVqvRALKzmbx-136" value="1..1" style="resizable=0;html=1;align=left;verticalAlign=bottom;" connectable="0" vertex="1" parent="ADMuirEgVVqvRALKzmbx-135">
          <mxGeometry x="-1" relative="1" as="geometry" />
        </mxCell>
        <mxCell id="ADMuirEgVVqvRALKzmbx-137" value="0..*" style="resizable=0;html=1;align=right;verticalAlign=bottom;" connectable="0" vertex="1" parent="ADMuirEgVVqvRALKzmbx-135">
          <mxGeometry x="1" relative="1" as="geometry">
            <mxPoint x="20" as="offset" />
          </mxGeometry>
        </mxCell>
        <mxCell id="ADMuirEgVVqvRALKzmbx-141" value="0..*" style="text;html=1;align=center;verticalAlign=middle;resizable=0;points=[];autosize=1;strokeColor=none;fillColor=none;" vertex="1" parent="1">
          <mxGeometry x="235" y="540" width="30" height="20" as="geometry" />
        </mxCell>
        <mxCell id="ADMuirEgVVqvRALKzmbx-142" value="manages -&amp;gt;" style="text;html=1;align=center;verticalAlign=middle;resizable=0;points=[];autosize=1;strokeColor=none;fillColor=none;" vertex="1" parent="1">
          <mxGeometry x="470" y="210" width="80" height="20" as="geometry" />
        </mxCell>
        <mxCell id="ADMuirEgVVqvRALKzmbx-143" value="" style="endArrow=none;html=1;rounded=0;dashed=1;dashPattern=1 2;" edge="1" parent="1">
          <mxGeometry relative="1" as="geometry">
            <mxPoint x="340" y="539" as="sourcePoint" />
            <mxPoint x="420" y="539" as="targetPoint" />
          </mxGeometry>
        </mxCell>
        <mxCell id="ADMuirEgVVqvRALKzmbx-150" value="" style="swimlane;fontStyle=0;childLayout=stackLayout;horizontal=1;startSize=36;horizontalStack=0;resizeParent=1;resizeParentMax=0;resizeLast=0;collapsible=1;marginBottom=0;align=center;fontSize=14;" vertex="1" parent="1">
          <mxGeometry x="225" y="250" width="80" height="60" as="geometry">
            <mxRectangle x="225" y="250" width="50" height="40" as="alternateBounds" />
          </mxGeometry>
        </mxCell>
        <mxCell id="ADMuirEgVVqvRALKzmbx-151" value="reg_date&#xa;" style="text;strokeColor=none;fillColor=none;spacingLeft=4;spacingRight=4;overflow=hidden;rotatable=0;points=[[0,0.5],[1,0.5]];portConstraint=eastwest;fontSize=12;" vertex="1" parent="ADMuirEgVVqvRALKzmbx-150">
          <mxGeometry y="36" width="80" height="24" as="geometry" />
        </mxCell>
        <mxCell id="ADMuirEgVVqvRALKzmbx-155" value="" style="swimlane;fontStyle=0;childLayout=stackLayout;horizontal=1;startSize=26;horizontalStack=0;resizeParent=1;resizeParentMax=0;resizeLast=0;collapsible=1;marginBottom=0;align=center;fontSize=14;" vertex="1" parent="1">
          <mxGeometry x="420" y="505" width="60" height="56" as="geometry" />
        </mxCell>
        <mxCell id="ADMuirEgVVqvRALKzmbx-156" value="parent" style="text;strokeColor=none;fillColor=none;spacingLeft=4;spacingRight=4;overflow=hidden;rotatable=0;points=[[0,0.5],[1,0.5]];portConstraint=eastwest;fontSize=12;" vertex="1" parent="ADMuirEgVVqvRALKzmbx-155">
          <mxGeometry y="26" width="60" height="30" as="geometry" />
        </mxCell>
        <mxCell id="ADMuirEgVVqvRALKzmbx-161" value="work" style="shape=ext;margin=3;double=1;whiteSpace=wrap;html=1;align=center;" vertex="1" parent="1">
          <mxGeometry x="420" y="360" width="100" height="40" as="geometry" />
        </mxCell>
        <mxCell id="ADMuirEgVVqvRALKzmbx-162" value="" style="endArrow=none;html=1;rounded=0;dashed=1;dashPattern=1 2;exitX=0;exitY=0.5;exitDx=0;exitDy=0;entryX=0.5;entryY=0;entryDx=0;entryDy=0;" edge="1" parent="1" source="ADMuirEgVVqvRALKzmbx-161" target="ADMuirEgVVqvRALKzmbx-112">
          <mxGeometry relative="1" as="geometry">
            <mxPoint x="400" y="400" as="sourcePoint" />
            <mxPoint x="560" y="400" as="targetPoint" />
            <Array as="points">
              <mxPoint x="340" y="380" />
            </Array>
          </mxGeometry>
        </mxCell>
        <mxCell id="ADMuirEgVVqvRALKzmbx-163" value="0..*" style="resizable=0;html=1;align=left;verticalAlign=bottom;" connectable="0" vertex="1" parent="ADMuirEgVVqvRALKzmbx-162">
          <mxGeometry x="-1" relative="1" as="geometry">
            <mxPoint x="-20" as="offset" />
          </mxGeometry>
        </mxCell>
        <mxCell id="ADMuirEgVVqvRALKzmbx-164" value="0..*" style="resizable=0;html=1;align=right;verticalAlign=bottom;" connectable="0" vertex="1" parent="ADMuirEgVVqvRALKzmbx-162">
          <mxGeometry x="1" relative="1" as="geometry" />
        </mxCell>
      </root>
    </mxGraphModel>
  </diagram>
</mxfile>
